<?xml version="1.0" encoding="utf-8"?>
<!-- Generator: Adobe Illustrator 24.2.1, SVG Export Plug-In . SVG Version: 6.00 Build 0)  -->
<svg version="1.1" id="Capa_1" xmlns="http://www.w3.org/2000/svg" xmlns:xlink="http://www.w3.org/1999/xlink" x="0px" y="0px"
	 width="566.9px" height="566.9px" viewBox="0 0 566.9 566.9" style="enable-background:new 0 0 566.9 566.9;" xml:space="preserve"
	>
<style type="text/css">
	.st0{fill:#FB5B12;}
	.st1{fill:#FFFFFF;}
</style>
<g id="Grupo_550" transform="translate(-30 -357)">
	<circle id="Oval" class="st0" cx="313.5" cy="640.5" r="282"/>
	<path id="Trazado_323" class="st1" d="M489.8,673.3c-4.3-5.5-10.7-8.9-17.6-9.6c-1.3-0.2-2.5-0.3-3.8-0.4v-52.8
		c0-4.8-3.9-8.8-8.7-8.8c-1.3,0-2.5,0.3-3.6,0.8l-2.5,1.1l-0.6-10.3c-0.1-2.8-2.6-5-5.4-4.9c-0.7,0-1.3,0.2-1.9,0.5
		c-1.2,0.6-14.6,6.8-31,14.7c-0.1-0.3-0.3-0.5-0.5-0.8c-12.7-13.3-27.8-24-44.6-31.5c37-33.6,39.7-90.7,6.1-127.7S285,404,248,437.6
		s-39.7,90.7-6.1,127.7c3.3,3.6,6.8,6.9,10.6,9.9c-15.2,5.3-29.3,13.2-41.6,23.5c-0.9,0.9-1.6,2.1-1.9,3.4
		c-11.7-5.4-20.5-9.3-21.4-9.7c-2.6-1.2-5.7,0-6.8,2.6c-0.3,0.6-0.4,1.2-0.4,1.8l-0.5,9.4l-5.6-2.5c-4.4-2-9.6,0-11.6,4.4
		c-0.5,1.1-0.8,2.3-0.8,3.6l0,68.7c-8,0.2-15.5,4-20.4,10.3c-8.6,12.5-8,37.7,5.8,52.7c3.7,4.1,8.6,6.7,14,7.5c0.2,0,0.4,0,0.6,0.1
		l0,36.4c0,3.5,2,6.6,5.2,8l144.4,64.4c0.1,0,0.2,0,0.2,0.1c0.7,0.3,1.4,0.5,2.1,0.6c0.9,0.1,1.9,0.1,2.8-0.1
		c0.3-0.1,0.6-0.2,0.8-0.2c0.4-0.1,0.8-0.2,1.2-0.3l144.4-65.6c3.1-1.4,5.1-4.5,5.1-8V734c6.4-0.3,12.4-3.2,16.6-8
		C498.2,711.1,498.5,685.4,489.8,673.3z M443,601.6l0.4,6.7l-96.7,43.9c5.3-3.7,11.1-7.5,17.3-11.1
		C381.7,630.8,425.9,609.7,443,601.6z M242.1,475.2c16.2-36.9,59.3-53.7,96.2-37.5c36.9,16.2,53.7,59.3,37.5,96.2
		c-16.2,36.9-59.3,53.7-96.2,37.5c-0.1,0-0.1,0-0.2-0.1C242.7,555,226,512.1,242.1,475.2z M190.2,604.9
		c16.4,7.4,57.7,26.3,75.3,36.5c5.8,3.4,11.4,7,16.5,10.4l-92.1-41.1L190.2,604.9z M163.9,733.6c-1.4-0.2-2.7-0.9-3.7-2
		c-7-8.7-8.7-20.6-4.3-30.9c3.8-2.7,8.6-3.7,13.2-2.6c3,0.4,12.9,2.6,14.6,11.6c0.7,6.6-1.7,13-6.6,17.5
		C173.9,731.1,169.1,733.5,163.9,733.6z M179.6,781.7v-34.5c2.8-1.6,5.4-3.4,7.8-5.6c1.3-1.2,2.6-2.5,3.8-3.8c0.4-0.4,0.7-0.8,1-1.2
		c2.9-3.8,5.3-8,7.2-12.4c0.2-0.4,0.3-0.8,0.4-1.2l0,0c1.2-3.5,1.8-7.1,1.7-10.8l0,0c0-0.9,0-1.8-0.1-2.6c-0.1-0.6-0.1-1.3-0.2-1.9
		c0-0.3-0.1-0.7-0.1-1s-0.1-0.6-0.2-0.8c-0.3-1.3-0.6-2.5-1-3.7c-0.1-0.4-0.3-0.8-0.5-1.2c-0.3-0.9-0.8-1.7-1.2-2.6
		c-2.9-5-6.9-9.3-11.8-12.4c-2.2-1.3-4.4-2.3-6.8-3.1l0-57.5l126.9,56.6l0.1,156.5L179.6,781.7z M314.9,666.4l-0.4-0.2
		c-11.5-14.6-37.6-30.3-43.8-33.9c-10.7-6.2-29.5-15.3-46.5-23.3c11.2-9.9,35.6-19.2,46.3-22.7c0.6,0.3,1.2,0.7,1.9,1
		c7.5,3.3,15.3,5.6,23.4,6.7l0,0c19.8,2.9,39.9-0.9,57.3-10.8c0.2,0.1,0.4,0.1,0.6,0.2c17.1,5.5,32.7,15,45.5,27.7
		c-15.6,7.7-31.2,15.6-40.4,21C352.5,635.9,326.3,651.7,314.9,666.4z M450.8,780.5L324,838.2l-0.1-156.4l126.9-57.7v42.1
		c-1.1,0.4-2.2,1-3.2,1.5l-0.1,0.3c0,0-0.4,0.2-0.9,0.5c-4.9,3.1-9,7.4-11.8,12.4c-0.3,0.5-0.5,0.9-0.8,1.4
		c-0.2,0.4-0.3,0.8-0.4,1.2c-0.2,0.4-0.3,0.8-0.5,1.2c-0.4,1.2-0.8,2.4-1,3.7c-0.1,0.3-0.1,0.6-0.2,0.8c0,0.3-0.1,0.7-0.1,1
		c-0.1,0.6-0.2,1.3-0.2,1.9c-0.1,0.9-0.1,1.8-0.1,2.6c-0.1,3.7,0.5,7.3,1.7,10.8c0.1,0.3,0.2,0.6,0.3,0.9l0.1,0.3
		c1.9,4.4,4.3,8.6,7.2,12.4c0.3,0.4,0.7,0.8,1,1.3c1.2,1.4,2.4,2.6,3.8,3.8l0.2,0.2c1.5,1.2,2.8,2.5,3.9,4c0.4,0.2,0.7,0.5,1.1,0.8
		v1.7c0,0.1,0,0.2,0,0.2L450.8,780.5z M471.8,714.5c-1.5,1.8-3.9,2.6-6.1,2.1c-5.6-1.3-10.4-4.7-13.6-9.5c-3.2-4-4.7-9.1-4.1-14.2
		c1.8-10.1,14-13.1,21.7-11.9c2.2,0.1,4.3,1,6,2.5C480.1,693.7,478.7,705.6,471.8,714.5L471.8,714.5z"/>
</g>
</svg>
